<svg width="18" height="18" viewBox="0 0 30 30" fill="none" xmlns="http://www.w3.org/2000/svg">
<path d="M26.9163 7.47654C26.9354 7.80464 26.9354 8.13283 26.9354 8.46093C26.9354 18.4687 20.7488 30 9.44166 30C5.95813 30 2.7221 28.7578 0 26.6016C0.494943 26.6719 0.970785 26.6953 1.48477 26.6953C4.3591 26.6953 7.00509 25.5 9.11804 23.461C6.41499 23.3906 4.14974 21.211 3.36927 18.2109C3.75001 18.2812 4.1307 18.3281 4.53049 18.3281C5.0825 18.3281 5.63457 18.2343 6.1485 18.0703C3.33124 17.3671 1.21823 14.3203 1.21823 10.6406V10.5469C2.03673 11.1094 2.98859 11.461 3.9974 11.5078C2.3413 10.1484 1.25631 7.82809 1.25631 5.20307C1.25631 3.79685 1.56083 2.50779 2.09386 1.38278C5.12053 5.97652 9.67006 8.97647 14.7715 9.30466C14.6764 8.74215 14.6193 8.15627 14.6193 7.57032C14.6193 3.3984 17.3604 0 20.7678 0C22.5381 0 24.137 0.91406 25.2602 2.39062C26.6497 2.06252 27.9822 1.42967 29.1625 0.562504C28.7055 2.32036 27.7348 3.79692 26.4594 4.73435C27.6967 4.57037 28.896 4.1484 30 3.56253C29.1626 5.06246 28.1156 6.39835 26.9163 7.47654Z" fill="#F9D949"/>
</svg>
