<svg width="18" height="18" viewBox="0 0 30 30" fill="none" xmlns="http://www.w3.org/2000/svg">
<path d="M29.3731 4.69398C29.0281 2.84633 28.0115 1.39117 26.7208 0.897344C24.3813 0 15 0 15 0C15 0 5.61879 0 3.27919 0.897344C1.98847 1.39125 0.971904 2.84633 0.626879 4.69398C0 8.04297 0 15.0303 0 15.0303C0 15.0303 0 22.0177 0.626879 25.3666C0.971904 27.2143 1.98847 28.6088 3.27919 29.1027C5.61879 30 15 30 15 30C15 30 24.3812 30 26.7208 29.1027C28.0115 28.6088 29.0281 27.2143 29.3731 25.3666C30 22.0177 30 15.0303 30 15.0303C30 15.0303 30 8.04297 29.3731 4.69398ZM11.9318 21.3743V8.68633L19.7727 15.0305L11.9318 21.3743Z" fill="#F9D949"/>
</svg>
